HIERARCHY
ROOT Hips
{
	OFFSET 0.000000 0.000000 0.000000
	CHANNELS 6 Xposition Yposition Zposition Zrotation Yrotation Xrotation 
	JOINT LHipJoint
	{
		OFFSET 0.000000 0.000000 0.000000
		CHANNELS 3 Zrotation Yrotation Xrotation
		JOINT LeftUpLeg
		{
			OFFSET 1.363060 -1.794630 0.839290
			CHANNELS 3 Zrotation Yrotation Xrotation
			JOINT LeftLeg
			{
				OFFSET 2.448110 -6.726130 0.000000
				CHANNELS 3 Zrotation Yrotation Xrotation
				JOINT LeftFoot
				{
					OFFSET 2.562200 -7.039590 0.000000
					CHANNELS 3 Zrotation Yrotation Xrotation
					JOINT LeftToeBase
					{
						OFFSET 0.157640 -0.433110 2.322550
						CHANNELS 3 Zrotation Yrotation Xrotation
						End Site
						{
							OFFSET 0.000000 0.000000 0.000000
						}
					}
				}
			}
		}
	}
	JOINT RHipJoint
	{
		OFFSET 0.000000 0.000000 0.000000
		CHANNELS 3 Zrotation Yrotation Xrotation
		JOINT RightUpLeg
		{
			OFFSET -1.305520 -1.794630 0.839290
			CHANNELS 3 Zrotation Yrotation Xrotation
			JOINT RightLeg
			{
				OFFSET -2.542530 -6.985550 0.000000
				CHANNELS 3 Zrotation Yrotation Xrotation
				JOINT RightFoot
				{
					OFFSET -2.568260 -7.056230 0.000000
					CHANNELS 3 Zrotation Yrotation Xrotation
					JOINT RightToeBase
					{
						OFFSET -0.164730 -0.452590 2.363150
						CHANNELS 3 Zrotation Yrotation Xrotation
						End Site
						{
							OFFSET 0.000000 0.000000 0.000000
						}
					}
				}
			}
		}
	}
	JOINT LowerBack
	{
		OFFSET 0.000000 0.000000 0.000000
		CHANNELS 3 Zrotation Yrotation Xrotation
		JOINT Spine
		{
			OFFSET 0.028270 2.035590 -0.193380
			CHANNELS 3 Zrotation Yrotation Xrotation
			JOINT Spine1
			{
				OFFSET 0.056720 2.048850 -0.042750
				CHANNELS 3 Zrotation Yrotation Xrotation
				JOINT Neck
				{
					OFFSET 0.000000 0.000000 0.000000
					CHANNELS 3 Zrotation Yrotation Xrotation
					JOINT Neck1
					{
						OFFSET -0.054170 1.746240 0.172020
						CHANNELS 3 Zrotation Yrotation Xrotation
						JOINT Head
						{
							OFFSET 0.104070 1.761360 -0.123970
							CHANNELS 3 Zrotation Yrotation Xrotation
							End Site
							{
								OFFSET 0.000000 0.000000 0.000000
							}
						}
					}
				}
				JOINT LeftShoulder
				{
					OFFSET 0.000000 0.000000 0.000000
					CHANNELS 3 Zrotation Yrotation Xrotation
					JOINT LeftArm
					{
						OFFSET 3.362410 1.200890 -0.311210
						CHANNELS 3 Zrotation Yrotation Xrotation
						JOINT LeftForeArm
						{
							OFFSET 4.983000 -0.000000 -0.000000
							CHANNELS 3 Zrotation Yrotation Xrotation
							JOINT LeftHand
							{
								OFFSET 3.483560 -0.000000 -0.000000
								CHANNELS 3 Zrotation Yrotation Xrotation
								JOINT LeftFingerBase
								{
									OFFSET 0.000000 0.000000 0.000000
									CHANNELS 3 Zrotation Yrotation Xrotation
									JOINT LeftHandIndex1
									{
										OFFSET 0.715260 -0.000000 -0.000000
										CHANNELS 3 Zrotation Yrotation Xrotation
										End Site
										{
											OFFSET 0.000000 0.000000 0.000000
										}
									}
								}
								JOINT LThumb
								{
									OFFSET 0.000000 0.000000 0.000000
									CHANNELS 3 Zrotation Yrotation Xrotation
									End Site
									{
										OFFSET 0.000000 0.000000 0.000000
									}
								}
							}
						}
					}
				}
				JOINT RightShoulder
				{
					OFFSET 0.000000 0.000000 0.000000
					CHANNELS 3 Zrotation Yrotation Xrotation
					JOINT RightArm
					{
						OFFSET -3.136600 1.374050 -0.404650
						CHANNELS 3 Zrotation Yrotation Xrotation
						JOINT RightForeArm
						{
							OFFSET -5.241900 -0.000000 -0.000000
							CHANNELS 3 Zrotation Yrotation Xrotation
							JOINT RightHand
							{
								OFFSET -3.444170 -0.000000 -0.000000
								CHANNELS 3 Zrotation Yrotation Xrotation
								JOINT RightFingerBase
								{
									OFFSET 0.000000 0.000000 0.000000
									CHANNELS 3 Zrotation Yrotation Xrotation
									JOINT RightHandIndex1
									{
										OFFSET -0.622530 -0.000000 -0.000000
										CHANNELS 3 Zrotation Yrotation Xrotation
										End Site
										{
											OFFSET 0.000000 0.000000 0.000000
										}
									}
								}
								JOINT RThumb
								{
									OFFSET 0.000000 0.000000 0.000000
									CHANNELS 3 Zrotation Yrotation Xrotation
									End Site
									{
										OFFSET 0.000000 0.000000 0.000000
									}
								}
							}
						}
					}
				}
			}
		}
	}
}
MOTION
Frames: 6
Frame Time: 0.008333
1.719570 17.987380 0.602288 93.819959 88.296326 106.697814 -2.937855 0.534594 1.636477 -15.330560 3.358428 -14.678024 0.571051 3.996777 11.764396 0.641269 -0.351678 2.335877 2.069500 -9.009400 -25.824600 -1.173082 -2.338514 0.310025 18.102486 0.895627 -12.818336 -1.047104 -4.071860 13.426711 -0.255160 0.140593 -6.019839 -0.548000 4.742300 -13.175000 -0.602762 -1.325175 -11.724717 3.061870 -2.184113 -3.915202 -2.135639 -1.046307 4.102583 -2.316676 -1.194207 -18.481556 4.007602 -0.721628 16.769982 -0.763000 0.248100 8.663700 0.851320 -7.398048 1.412603 -86.798066 1.799706 38.192663 22.543621 -28.011010 -4.859913 -0.241830 2.647309 -10.478421 8.833664 29.072410 3.852600 -7.125000 0.000000 0.000000 -22.734300 55.163700 -5.897300 -0.522776 9.162154 2.771664 85.485828 -0.417616 33.654620 -22.682779 30.475293 -3.767815 -1.262215 -1.535474 6.200590 -15.758916 6.212830 -2.085700 7.125000 0.000000 0.000000 8.814200 -21.760000 4.976400 
1.721128 17.988062 0.600339 93.729437 88.323686 106.627536 -2.934904 0.532831 1.629754 -15.320281 3.357191 -14.679056 0.568688 3.989705 11.741100 0.626228 -0.286888 2.336703 2.098600 -9.068500 -26.010000 -1.171758 -2.335577 0.307511 18.113657 1.005323 -12.792700 -1.047307 -4.077453 13.440235 -0.248346 0.082284 -6.066489 -0.543900 4.724900 -13.125500 -0.594789 -1.321775 -11.689215 3.104741 -2.174617 -3.996784 -2.124741 -1.042907 4.066360 -2.258169 -1.136147 -18.387373 3.888972 -0.642998 16.828117 -0.793900 0.280200 8.667000 0.843717 -7.403238 1.416693 -86.877984 1.892589 38.050371 22.569033 -28.040421 -4.868260 -0.236108 2.640103 -10.526582 8.874193 28.971809 3.855400 -7.125000 0.000000 0.000000 -22.642900 55.085700 -5.827800 -0.525696 9.162872 2.778725 85.461812 -0.467625 33.551391 -22.667748 30.455185 -3.768698 -1.274329 -1.529429 6.209354 -15.841539 6.279842 -2.112800 7.125000 0.000000 0.000000 8.761100 -21.691700 4.959400 
1.722785 17.988257 0.598293 93.862296 88.289471 106.789043 -2.936428 0.532727 1.626646 -15.371856 3.343448 -14.733718 0.571461 3.997644 11.766562 0.623966 -0.277588 2.381612 2.092600 -9.056300 -25.971600 -1.173313 -2.331925 0.306013 18.065645 1.045589 -12.787402 -1.046089 -4.075441 13.433474 -0.238792 0.026793 -6.049845 -0.542800 4.720500 -13.112900 -0.621538 -1.331153 -11.716090 3.097901 -2.185455 -4.024821 -2.115256 -1.047592 4.079366 -2.212090 -1.073679 -18.326098 3.798911 -0.560076 16.833252 -0.815800 0.313100 8.662400 0.843166 -7.408415 1.420004 -86.929502 1.916152 37.868382 22.595881 -28.071094 -4.877734 -0.242758 2.635654 -10.643941 8.842002 28.955610 3.840000 -7.125000 0.000000 0.000000 -22.664600 55.068300 -5.824100 -0.530834 9.159348 2.776242 85.477654 -0.440988 33.397853 -22.604587 30.394252 -3.750765 -1.279932 -1.515127 6.241463 -15.829845 6.376310 -2.131800 7.125000 0.000000 0.000000 8.771200 -21.607300 4.982300 
1.724343 17.988646 0.597514 93.996444 88.344200 106.907863 -2.933198 0.534759 1.628126 -15.308522 3.332771 -14.748617 0.573673 4.013962 11.807838 0.616239 -0.243596 2.387522 2.072800 -9.016100 -25.845800 -1.173279 -2.332219 0.306574 18.125051 1.049651 -12.751534 -1.044181 -4.064993 13.410398 -0.236906 0.012385 -6.060994 -0.564200 4.811100 -13.370500 -0.556031 -1.325960 -11.722197 3.110530 -2.184229 -4.000342 -2.155294 -1.047452 4.081667 -2.226088 -1.054483 -18.382161 3.817384 -0.518240 16.956259 -0.802500 0.340400 8.708200 0.844164 -7.399413 1.419783 -86.971054 1.914315 37.679125 22.599428 -28.076612 -4.876979 -0.248213 2.630476 -10.747779 8.814130 28.910444 3.822600 -7.125000 0.000000 0.000000 -22.664900 55.026000 -5.800300 -0.536545 9.166806 2.775321 85.533494 -0.408175 33.190872 -22.559433 30.360189 -3.742964 -1.286521 -1.511032 6.368652 -15.881278 6.377505 -2.139400 7.125000 0.000000 0.000000 8.736500 -21.604100 4.962800 
1.725805 17.989036 0.596929 94.516844 88.413404 107.385052 -2.927165 0.543711 1.635998 -15.238947 3.393946 -14.742637 0.574917 4.030262 11.843056 0.626086 -0.281702 2.359876 2.107100 -9.085700 -26.063800 -1.170095 -2.325177 0.304825 18.195699 1.101706 -12.659026 -1.042274 -4.056948 13.400685 -0.230790 -0.053071 -6.161284 -0.564200 4.810700 -13.369500 -0.522992 -1.343320 -11.699914 3.185032 -2.204690 -3.966716 -2.156766 -1.059407 4.073529 -2.269969 -1.042934 -18.463044 3.834120 -0.473501 17.135374 -0.781700 0.369500 8.773300 0.835152 -7.385621 1.417528 -87.051414 1.947310 37.429169 22.628610 -28.111108 -4.887546 -0.253476 2.625591 -10.707326 8.711050 28.916611 3.781000 -7.125000 0.000000 0.000000 -22.764200 55.016700 -5.822500 -0.537415 9.176541 2.781862 85.467203 -0.405928 33.229613 -22.588849 30.376501 -3.744847 -1.276540 -1.509182 6.252957 -15.780335 6.406104 -2.130700 7.125000 0.000000 0.000000 8.804000 -21.585900 5.005700 
1.728241 17.988354 0.595176 94.906264 88.511954 107.767654 -2.918830 0.550189 1.640815 -15.134261 3.416888 -14.749173 0.578293 4.055904 11.906171 0.645410 -0.361404 2.308544 2.089500 -9.050000 -25.951800 -1.168765 -2.321096 0.302753 18.297369 1.143206 -12.591749 -1.038721 -4.037779 13.359012 -0.218382 -0.125007 -6.146547 -0.537800 4.698700 -13.051300 -0.433090 -1.352564 -11.703759 3.253561 -2.220442 -3.953421 -2.187349 -1.068538 4.074050 -2.205834 -1.007834 -18.524076 3.717671 -0.407178 17.315431 -0.812200 0.401700 8.836700 0.829144 -7.375340 1.418174 -87.116981 2.001455 37.219205 22.664012 -28.138399 -4.877139 -0.139437 2.558143 -10.631199 9.470147 27.506326 3.888600 -7.125000 0.000000 0.000000 -21.322400 53.921300 -4.846000 -0.545265 9.182275 2.787515 85.401949 -0.380499 33.282646 -22.580295 30.362996 -3.747242 -1.280437 -1.521561 6.183497 -15.854493 6.321211 -2.122500 7.125000 0.000000 0.000000 8.756100 -21.656700 4.963600 
